<svg xmlns="http://www.w3.org/2000/svg" viewBox="0 0 43.56 47.26">
  <defs>
    <style>
      .cls-1 {
        fill: #646464;
      }
    </style>
  </defs>
  <g id="Layer_2" data-name="Layer 2">
    <g id="Layer_1-2" data-name="Layer 1">
      <path class="cls-1" d="M2.39,47.26a2.37,2.37,0,0,1-1-.21,2.4,2.4,0,0,1-1.2-3.16,53.68,53.68,0,0,1,3.34-6.3l.31-3.46A37.73,37.73,0,0,1,41.17,0a2.39,2.39,0,0,1,2.39,2.39A37.26,37.26,0,0,1,41.5,14.56a2.36,2.36,0,0,1-1.07,1.3l-2.09,1.19a2.19,2.19,0,0,1,.69.73,2.4,2.4,0,0,1,.07,2.36A37.6,37.6,0,0,1,7.83,39.81a49.71,49.71,0,0,0-3.26,6A2.4,2.4,0,0,1,2.39,47.26ZM17.69,19a2.34,2.34,0,0,1,1.68.69,2.38,2.38,0,0,1,.71,1.67,2.34,2.34,0,0,1-.68,1.7c-.72.73-1.44,1.48-2.17,2.25-.4.41-.78.82-1.16,1.23l-.27.29a88.9,88.9,0,0,0-8.28,10A34.65,34.65,0,0,0,36.06,19.55h-8l10.74-6.14A34.16,34.16,0,0,0,40.62,2.94,34.83,34.83,0,0,0,7.79,28.67C10,26,12.62,23.17,16,19.74A2.39,2.39,0,0,1,17.67,19Zm.39,2.76h0Zm20.65-8.17Z"/>
    </g>
  </g>
</svg>
