<svg xmlns="http://www.w3.org/2000/svg" viewBox="0 0 46.94 34.14">
  <defs>
    <style>
      .cls-1 {
        fill: #646464;
      }
    </style>
  </defs>
  <g id="Layer_2" data-name="Layer 2">
    <g id="Layer_1-2" data-name="Layer 1">
      <path class="cls-1" d="M6.4,34.14H40.54a6.41,6.41,0,0,0,6.4-6.4V6.4A6.41,6.41,0,0,0,40.54,0H6.4A6.41,6.41,0,0,0,0,6.4V27.74A6.41,6.41,0,0,0,6.4,34.14Zm36.28-7.29-9.79-9.78,9.79-9.78ZM19,22A6.39,6.39,0,0,0,28,22l1.88-1.87,9.78,9.78H7.28l9.79-9.78Zm6-3a2.14,2.14,0,0,1-3,0L7.29,4.27H39.66ZM14.05,17.07,4.27,26.85V7.29Z"/>
    </g>
  </g>
</svg>
