<svg id="Layer_1" data-name="Layer 1" xmlns="http://www.w3.org/2000/svg" viewBox="0 0 96.15 96">
  <defs>
    <style>
      .cls-1 {
        fill: #231f20;
      }

      .cls-2 {
        fill: #e80088;
      }
    </style>
  </defs>
  <g>
    <path class="cls-1" d="M96.2,29h36V39.56H108.49v6.79H130v9.81h-21.5v7.09h24.06V73.81H96.2Z" transform="translate(-44.93 -29)"/>
    <path class="cls-1" d="M89.17,125H52.82V114.44H76.88v-7.09H55.38V97.54h21.5V90.75H53.13V80.19h36Z" transform="translate(-44.93 -29)"/>
    <path class="cls-1" d="M89.72,39.11v36H79.16V51.39H72.38v21.5H62.59V51.39h-7.1V75.45H44.93V39.11Z" transform="translate(-44.93 -29)"/>
    <path class="cls-2" d="M96.28,116.43V80.08h10.56v24.06h7.1V82.64h9.8v21.5h6.77V80.41h10.56v36Z" transform="translate(-44.93 -29)"/>
  </g>
</svg>
