<svg id="Layer_1" data-name="Layer 1" xmlns="http://www.w3.org/2000/svg" viewBox="0 0 1250.82 69.18">
  <defs>
    <style>
      .cls-1 {
        fill: #231f20;
      }

      .cls-2 {
        fill: #e80088;
      }
    </style>
  </defs>
  <g>
    <path class="cls-1" d="M1271.46,50h-26.19V42.41h17.34v-5.1h-15.5V30.24h15.5V25.35h-17.12V17.74h26Z" transform="translate(-57.59 -17.74)"/>
    <path class="cls-1" d="M1276.53,54.62h26v7.61h-17.12v4.9h15.5v7.06h-15.5V79.3h17.34v7.61h-26.19Z" transform="translate(-57.59 -17.74)"/>
    <path class="cls-1" d="M1308.41,25V51.21h-7.61V33.87h-5.12V49.36h-7.06V33.87h-4.88V51h-7.61V25Z" transform="translate(-57.59 -17.74)"/>
    <path class="cls-2" d="M1239.12,80.74v-26h7.62v17.1h4.88V56.39h7.06V71.88h5.11V54.54h7.61v26.2Z" transform="translate(-57.59 -17.74)"/>
    <rect class="cls-2" x="57.59" y="54.76" width="1181.53" height="7.46" transform="translate(1239.12 99.25) rotate(-180)"/>
  </g>
</svg>
