<svg xmlns="http://www.w3.org/2000/svg" viewBox="0 0 35.22 44.1">
  <defs>
    <style>
      .cls-1 {
        fill: #646464;
      }
    </style>
  </defs>
  <g id="Layer_2" data-name="Layer 2">
    <g id="Layer_1-2" data-name="Layer 1">
      <path class="cls-1" d="M24.73,19.26a11,11,0,1,0-14.24,0A17.64,17.64,0,0,0,0,35.37v2.22A6.51,6.51,0,0,0,6.51,44.1h22.2a6.51,6.51,0,0,0,6.51-6.51V35.37A17.64,17.64,0,0,0,24.73,19.26ZM10.8,11a6.81,6.81,0,1,1,6.81,6.81A6.82,6.82,0,0,1,10.8,11ZM31.07,37.59A2.35,2.35,0,0,1,28.71,40H6.51a2.37,2.37,0,0,1-2.37-2.36V35.37a13.47,13.47,0,1,1,26.93,0Z"/>
    </g>
  </g>
</svg>
