<svg xmlns="http://www.w3.org/2000/svg" viewBox="0 0 43.6 43.58">
  <defs>
    <style>
      .cls-1 {
        fill: #646464;
      }
    </style>
  </defs>
  <g id="Layer_2" data-name="Layer 2">
    <g id="Layer_1-2" data-name="Layer 1">
      <path class="cls-1" d="M30.87,25l-3.31,3.2a33.09,33.09,0,0,1-7-5.4,33.58,33.58,0,0,1-5.43-7l3.18-3.22a2.17,2.17,0,0,0,0-3.06L9.53.64a2.19,2.19,0,0,0-3.08,0L2.16,4.9A7.33,7.33,0,0,0,.73,13.29,64.59,64.59,0,0,0,13.1,30.48,64.59,64.59,0,0,0,30.29,42.85a7.34,7.34,0,0,0,8.39-1.43L43,37.13a2.17,2.17,0,0,0,0-3.07l-9-9.06A2.17,2.17,0,0,0,30.87,25Zm5.36,14a3.88,3.88,0,0,1-4.42.75A60.81,60.81,0,0,1,15.56,28,60.81,60.81,0,0,1,3.86,11.77a3.86,3.86,0,0,1,.75-4.41l3-2.94a.58.58,0,0,1,.82,0l6.16,6.2a.58.58,0,0,1,0,.81L11,15.07l.48,1.08a33.4,33.4,0,0,0,6.69,9.08,33.37,33.37,0,0,0,9,6.66l1.07.47L32,28.76a.57.57,0,0,1,.81,0l6.41,6.41a.59.59,0,0,1,0,.82Z"/>
    </g>
  </g>
</svg>
