<svg xmlns="http://www.w3.org/2000/svg" viewBox="0 0 75.35 84.98">
  <defs>
    <style>
      .estudios-1 {
        fill: none;
        stroke: #000;
        stroke-miterlimit: 10;
        stroke-width: 0.64px;
      }
    </style>
  </defs>
  <g id="Layer_2" data-name="Layer 2">
    <g id="Layer_1-2" data-name="Layer 1">
      <g>
        <path class="estudios-1" d="M30.42,35.76a.27.27,0,0,1-.27-.28V26.36H25.81a.28.28,0,0,1-.28-.28V17.19a.29.29,0,0,1,.28-.28h4.34V11.82a.27.27,0,0,1,.27-.28H49.18a.27.27,0,0,1,.28.28v9.63a.28.28,0,0,1-.28.28H43.44v13a.28.28,0,0,1-.55,0V21.45a.28.28,0,0,1,.27-.28h5.75V12.09H30.7v5.1a.28.28,0,0,1-.28.28H26.09v8.34h4.33a.27.27,0,0,1,.28.27v9.4A.27.27,0,0,1,30.42,35.76Z"/>
        <path class="estudios-1" d="M23.94,67.25H.6A.28.28,0,0,1,.32,67V37.7a.28.28,0,0,1,.28-.28H4.12a.27.27,0,0,1,.19.08.28.28,0,0,1,.09.2l-.19,26H23.94a.28.28,0,0,1,.28.27v3A.29.29,0,0,1,23.94,67.25ZM.88,66.69H23.66V64.28H3.93a.32.32,0,0,1-.2-.08.28.28,0,0,1-.08-.2l.19-26h-3Z"/>
        <path class="estudios-1" d="M.6,84.66h0a.29.29,0,0,1-.24-.32l2.6-17.41a.27.27,0,0,1,.31-.23.28.28,0,0,1,.24.31L.87,84.42A.28.28,0,0,1,.6,84.66Z"/>
        <path class="estudios-1" d="M24.62,84.66a.28.28,0,0,1-.28-.24L21.75,67a.28.28,0,0,1,.55-.08l2.59,17.41a.27.27,0,0,1-.23.32Z"/>
        <path class="estudios-1" d="M23,73.72H2.23a.28.28,0,1,1,0-.55H23a.28.28,0,1,1,0,.55Z"/>
        <path class="estudios-1" d="M35.8,83.36H26.63a.27.27,0,0,1-.28-.27V78.83a.28.28,0,1,1,.55,0v4h8.66a1.27,1.27,0,0,0-.19-.83,2.17,2.17,0,0,0-1.64-.75c-2.82-.3-2.77-2.39-2.77-2.42a.28.28,0,0,1,.28-.26h0a.27.27,0,0,1,.26.29c0,.06,0,1.6,2.28,1.84a2.65,2.65,0,0,1,2,1,1.9,1.9,0,0,1,.23,1.49A.27.27,0,0,1,35.8,83.36Z"/>
        <path class="estudios-1" d="M69.43,81.14H60.26a.28.28,0,0,1-.27-.2,1.88,1.88,0,0,1,.23-1.48,2.62,2.62,0,0,1,2-1c2.29-.25,2.28-1.78,2.28-1.85a.27.27,0,0,1,.27-.28h0a.26.26,0,0,1,.27.26s0,2.12-2.77,2.42a2.13,2.13,0,0,0-1.63.75,1.28,1.28,0,0,0-.2.83h8.66v-4a.28.28,0,0,1,.55,0v4.26A.27.27,0,0,1,69.43,81.14Z"/>
        <path class="estudios-1" d="M31.24,76.88H26.63a.27.27,0,0,1-.28-.28V64.19a.28.28,0,0,1,0-.09,2.66,2.66,0,0,0-.22-2.22c-.52-.74-1.58-1.12-3.15-1.12-1,0-2.26.05-3.56.1-5.3.21-11.31.45-12.42-1.92-1.31-2.81-1.14-7.53-1.13-7.73V37.7c0-.32.91-7.17,3.89-9.42a3.27,3.27,0,0,1,2.55-.67c4.76.73,6.19,2.29,6.66,7.28.43,4.6,0,15.31,0,15.42a.44.44,0,0,1,0,.1A1.8,1.8,0,0,0,19,51.88,2.64,2.64,0,0,0,21,53a26.77,26.77,0,0,0,2.84.23c3.3.15,7.41.35,7.65,3.54.3,3.86,0,19.69,0,19.85A.27.27,0,0,1,31.24,76.88Zm-4.34-.55H31c0-2.13.27-16,0-19.53-.21-2.7-3.89-2.88-7.13-3a25.51,25.51,0,0,1-2.9-.24,3.12,3.12,0,0,1-2.42-1.39,2.32,2.32,0,0,1-.09-1.9c0-.78.41-10.89,0-15.29s-1.4-6.06-6.18-6.79a2.68,2.68,0,0,0-2.13.56c-2.8,2.12-3.67,8.94-3.68,9V51.22c0,.06-.16,4.8,1.09,7.48,1,2,7.27,1.79,11.89,1.61,1.31-.05,2.54-.1,3.58-.1,1.77,0,3,.45,3.61,1.35a3.15,3.15,0,0,1,.3,2.67Z"/>
        <path class="estudios-1" d="M6.2,53.92a.28.28,0,0,1,0-.56l12.55-1.61A.27.27,0,0,1,19,52a.27.27,0,0,1-.24.31L6.24,53.91Z"/>
        <g>
          <path class="estudios-1" d="M12.61,30.38s2.53-1,2.72,4.26-.75,9.36,1,10.47S27,50.23,27.27,52s-2.82,2.42-4.28.81-8-5.22-8-5.22S11.53,46.5,11,44a42.75,42.75,0,0,1-.46-7.32"/>
          <path class="estudios-1" d="M25.18,54a3.23,3.23,0,0,1-2.4-1c-1.41-1.56-7.89-5.13-8-5.17s-3.54-1.17-4.12-3.79a41.87,41.87,0,0,1-.47-7.38.28.28,0,0,1,.28-.28h0a.29.29,0,0,1,.28.29,42.31,42.31,0,0,0,.45,7.25c.52,2.32,3.77,3.39,3.8,3.41.32.16,6.68,3.67,8.16,5.29a2.73,2.73,0,0,0,3.05.62,1.14,1.14,0,0,0,.75-1.2c-.17-1.18-5.42-3.89-8.24-5.34-1.17-.6-2.1-1.08-2.56-1.38-1.36-.85-1.29-3.11-1.19-6.23.05-1.33.09-2.85,0-4.46-.09-2.56-.74-3.51-1.26-3.86a1.25,1.25,0,0,0-1.08-.15.29.29,0,0,1-.36-.16.28.28,0,0,1,.15-.36,1.82,1.82,0,0,1,1.58.2c.93.6,1.44,2.06,1.52,4.31.06,1.63,0,3.16,0,4.5-.09,2.94-.16,5.06.92,5.74.45.29,1.41.78,2.53,1.36,4.55,2.34,8.34,4.4,8.53,5.76a1.66,1.66,0,0,1-1.06,1.77A3.07,3.07,0,0,1,25.18,54Z"/>
        </g>
        <path class="estudios-1" d="M61.13,49.74a.27.27,0,0,1-.17-.06.23.23,0,0,1-.1-.19c0-.22-2.14-22.28-2.87-27.31-.81-5.55,2.9-7.24,6.22-8.09a3.08,3.08,0,0,1,2.51.35c1.89,1.18,2.53,4.18,2.56,4.31L75,47.09a.26.26,0,0,1,0,.21.25.25,0,0,1-.18.12L61.18,49.74Zm4-35.21a2.8,2.8,0,0,0-.74.1c-3.29.84-6.55,2.39-5.81,7.47.68,4.72,2.58,24.38,2.84,27l13-2.22L68.73,18.86s-.61-2.89-2.31-3.95A2.51,2.51,0,0,0,65.09,14.53Z"/>
        <path class="estudios-1" d="M71.14,75H63.65a.28.28,0,0,1-.27-.28V49a.28.28,0,0,1,.55,0V74.47h6.93V47.76a.28.28,0,0,1,.55,0v27A.28.28,0,0,1,71.14,75Z"/>
        <g>
          <path class="estudios-1" d="M66.09,19.17s-1.11-3-4.1-.76-8,6.81-9.93,4.79-6.67-8.4-6.67-8.4l-2.23,1.59,6.46,10S51,31,55.11,28.69s8.54-4.51,8.54-4.51"/>
          <path class="estudios-1" d="M53,29.61a3.08,3.08,0,0,1-1.17-.22,4.87,4.87,0,0,1-2.43-2.87l-6.44-10a.28.28,0,0,1,.07-.38l2.22-1.6a.28.28,0,0,1,.39.06c0,.06,4.73,6.4,6.64,8.38,1.47,1.51,5.27-1.46,8-3.64.55-.43,1.06-.83,1.53-1.18a3.2,3.2,0,0,1,2.83-.79,2.91,2.91,0,0,1,1.7,1.68.28.28,0,0,1-.52.19,2.39,2.39,0,0,0-1.34-1.34,2.71,2.71,0,0,0-2.33.7c-.47.35-1,.75-1.53,1.18-3.1,2.43-7,5.46-8.77,3.58s-5.67-7-6.53-8.21l-1.79,1.29,6.32,9.78,0,.07A4.39,4.39,0,0,0,52,28.87a3.43,3.43,0,0,0,3-.42c4.05-2.27,8.5-4.5,8.55-4.52a.27.27,0,0,1,.37.12.27.27,0,0,1-.12.37c-.05,0-4.49,2.25-8.53,4.52A4.83,4.83,0,0,1,53,29.61Z"/>
        </g>
        <g>
          <path class="estudios-1" d="M44,15.77s-4.41,0-4.06-1.52,2.36-3.41,3.19-3.2,1.39-.49,2.23,3.75"/>
          <path class="estudios-1" d="M44,16.05c-.43,0-3.33,0-4.12-1a.93.93,0,0,1-.19-.83,5.81,5.81,0,0,1,2.38-3.11,1.61,1.61,0,0,1,1.15-.31,1.92,1.92,0,0,0,.32.05c.84.08,1.4.31,2.11,3.92a.28.28,0,1,1-.55.11c-.66-3.39-1.1-3.43-1.61-3.48a1.94,1.94,0,0,1-.4-.06c-.06,0-.27,0-.73.25a5.22,5.22,0,0,0-2.13,2.75.39.39,0,0,0,.08.36c.54.68,2.82.82,3.69.82h0a.28.28,0,0,1,.28.28A.26.26,0,0,1,44,16.05Z"/>
        </g>
        <path class="estudios-1" d="M50.72,8.52a.29.29,0,0,1-.26-.16L48.93,5a.22.22,0,0,1,0-.18A5.67,5.67,0,0,1,52,.76c2.79-1.23,6.17.49,6.31.57a.25.25,0,0,1,.14.16l1.22,4.08a.29.29,0,0,1-.19.35L50.8,8.51ZM49.48,4.88l1.39,3L59,5.46,57.92,1.77c-.57-.27-3.44-1.51-5.73-.5A5.13,5.13,0,0,0,49.48,4.88Z"/>
        <path class="estudios-1" d="M56.43,15.1a3.21,3.21,0,0,1-.81-.1c-3.25-.83-5.09-6.43-5.17-6.67A.27.27,0,0,1,50.63,8a.27.27,0,0,1,.35.18c0,.05,1.82,5.55,4.78,6.3a3.66,3.66,0,0,0,3.42-1.26c3.3-3.14.11-7.2,0-7.38a.27.27,0,0,1,0-.39.28.28,0,0,1,.39.05s3.64,4.63,0,8.12A4.59,4.59,0,0,1,56.43,15.1Z"/>
        <path class="estudios-1" d="M18.09,27.86a4.88,4.88,0,0,1-1.72-.31,5.58,5.58,0,0,1-2.94-7.3A6,6,0,0,1,16.31,17a5,5,0,0,1,4.13-.29A5.58,5.58,0,0,1,23.38,24h0a6.09,6.09,0,0,1-2.88,3.3A5.36,5.36,0,0,1,18.09,27.86Zm.63-10.94a4.62,4.62,0,0,0-2.15.53,5.47,5.47,0,0,0-2.62,3A5,5,0,0,0,16.57,27a4.46,4.46,0,0,0,3.67-.26,5.52,5.52,0,0,0,2.62-3,5,5,0,0,0-2.62-6.59A4.43,4.43,0,0,0,18.72,16.92Zm4.4,7Z"/>
        <path class="estudios-1" d="M36.49,81.14a.28.28,0,0,1-.28-.28V45.63a.28.28,0,0,1,.56,0V80.86A.28.28,0,0,1,36.49,81.14Z"/>
        <path class="estudios-1" d="M40,81.14a.27.27,0,0,1-.28-.28V45.63a.27.27,0,0,1,.28-.28.28.28,0,0,1,.28.28V80.86A.28.28,0,0,1,40,81.14Z"/>
        <path class="estudios-1" d="M52.33,45.9h-31a.27.27,0,0,1-.27-.27V41.18a.28.28,0,0,1,.27-.28H52.33a.29.29,0,0,1,.28.28v4.45A.28.28,0,0,1,52.33,45.9Zm-30.77-.55H52.05V41.46H21.56Z"/>
        <path class="estudios-1" d="M51.22,39.51H21.28a.27.27,0,0,1-.27-.27V35.48a.27.27,0,0,1,.27-.27H51.22a.27.27,0,0,1,.28.27v3.76A.27.27,0,0,1,51.22,39.51ZM21.56,39H50.94v-3.2H21.56Z"/>
        <path class="estudios-1" d="M40,33.26H32.51a.28.28,0,1,1,0-.55H40a.28.28,0,1,1,0,.55Z"/>
        <path class="estudios-1" d="M21.28,35.76a.27.27,0,0,1-.27-.28v-9a19.12,19.12,0,0,1-1-9.59.29.29,0,0,1,.33-.22.27.27,0,0,1,.22.32,19.08,19.08,0,0,0,.93,9.34.36.36,0,0,1,0,.1v9.06A.27.27,0,0,1,21.28,35.76Z"/>
        <path class="estudios-1" d="M47,17.43a.28.28,0,0,1-.27-.28V11.82a.28.28,0,1,1,.55,0v5.33A.28.28,0,0,1,47,17.43Z"/>
      </g>
    </g>
  </g>
</svg>
